<svg xmlns="http://www.w3.org/2000/svg" viewBox="0 0 128 128">
  <rect x="28" y="28" width="72" height="72" rx="8" fill="#4A4A4A"/>
  <rect x="48" y="48" width="32" height="32" fill="#666666"/>
  <g fill="#4A4A4A">
    <rect x="40" y="8" width="8" height="20" rx="2"/>
    <rect x="60" y="8" width="8" height="20" rx="2"/>
    <rect x="80" y="8" width="8" height="20" rx="2"/>
    
    <rect x="40" y="100" width="8" height="20" rx="2"/>
    <rect x="60" y="100" width="8" height="20" rx="2"/>
    <rect x="80" y="100" width="8" height="20" rx="2"/>
    
    <rect x="8" y="40" width="20" height="8" rx="2"/>
    <rect x="8" y="60" width="20" height="8" rx="2"/>
    <rect x="8" y="80" width="20" height="8" rx="2"/>
    
    <rect x="100" y="40" width="20" height="8" rx="2"/>
    <rect x="100" y="60" width="20" height="8" rx="2"/>
    <rect x="100" y="80" width="20" height="8" rx="2"/>
  </g>
</svg>
