<svg xmlns="http://www.w3.org/2000/svg" viewBox="0 0 128 128">
  <path fill="#336791" d="M12.8 32c0 10.603 22.923 19.2 51.2 19.2s51.2-8.597 51.2-19.2S92.277 12.8 64 12.8 12.8 21.397 12.8 32z"/>
  <path fill="#336791" d="M115.2 32c0 10.603-22.923 19.2-51.2 19.2S12.8 42.603 12.8 32v25.6c0 10.603 22.923 19.2 51.2 19.2s51.2-8.597 51.2-19.2V32z"/>
  <path fill="#336791" d="M115.2 57.6c0 10.603-22.923 19.2-51.2 19.2S12.8 68.203 12.8 57.6v25.6c0 10.603 22.923 19.2 51.2 19.2s51.2-8.597 51.2-19.2V57.6z"/>
  <path fill="#336791" d="M115.2 83.2c0 10.603-22.923 19.2-51.2 19.2S12.8 93.803 12.8 83.2v12.8c0 10.603 22.923 19.2 51.2 19.2s51.2-8.597 51.2-19.2V83.2z"/>
  <text x="64" y="85" fill="#FFFFFF" font-family="Arial, Helvetica, sans-serif" font-weight="bold" font-size="28" text-anchor="middle">SQL</text>
</svg>